<svg width="25" height="25" viewBox="0 0 25 25" fill="none" xmlns="http://www.w3.org/2000/svg">
<path d="M21.5084 24.4381C22.4792 24.4381 23.2663 23.651 23.2663 22.6802C23.2663 21.7094 22.4792 20.9224 21.5084 20.9224C20.5376 20.9224 19.7506 21.7094 19.7506 22.6802C19.7506 23.651 20.5376 24.4381 21.5084 24.4381Z" stroke="white" stroke-linecap="round" stroke-linejoin="round"/>
<path d="M9.78933 24.4381C10.7601 24.4381 11.5472 23.651 11.5472 22.6802C11.5472 21.7094 10.7601 20.9224 9.78933 20.9224C8.81848 20.9224 8.03146 21.7094 8.03146 22.6802C8.03146 23.651 8.81848 24.4381 9.78933 24.4381Z" stroke="white" stroke-linecap="round" stroke-linejoin="round"/>
<path d="M4.51573 3.34382H24.4382L22.0944 16.2348H6.85955L4.51573 3.34382ZM4.51573 3.34382C4.32041 2.56254 3.34382 1 1 1" stroke="white" stroke-linecap="round" stroke-linejoin="round"/>
<path d="M22.0944 16.2349H6.85958H4.7862C2.69515 16.2349 1.58598 17.1504 1.58598 18.5787C1.58598 20.007 2.69515 20.9225 4.7862 20.9225H21.5084" stroke="white" stroke-linecap="round" stroke-linejoin="round"/>
</svg>
