<svg width="30" height="30" viewBox="0 0 30 30" fill="none" xmlns="http://www.w3.org/2000/svg">
<path d="M25.6795 29.2051C26.8477 29.2051 27.7949 28.258 27.7949 27.0897C27.7949 25.9215 26.8477 24.9744 25.6795 24.9744C24.5112 24.9744 23.5641 25.9215 23.5641 27.0897C23.5641 28.258 24.5112 29.2051 25.6795 29.2051Z" fill="#D9A86D" stroke="#D9A86D" stroke-linecap="round" stroke-linejoin="round"/>
<path d="M11.5769 29.2051C12.7452 29.2051 13.6923 28.258 13.6923 27.0897C13.6923 25.9215 12.7452 24.9744 11.5769 24.9744C10.4086 24.9744 9.46155 25.9215 9.46155 27.0897C9.46155 28.258 10.4086 29.2051 11.5769 29.2051Z" fill="#D9A86D" stroke="#D9A86D" stroke-linecap="round" stroke-linejoin="round"/>
<path d="M5.23077 3.82051H29.2051L26.3846 19.3333H8.05128L5.23077 3.82051ZM5.23077 3.82051C4.99572 2.88034 3.82051 1 1 1" stroke="#D9A86D" stroke-linecap="round" stroke-linejoin="round"/>
<path d="M26.3846 19.3334H8.05126H5.55619C3.03986 19.3334 1.70511 20.4351 1.70511 22.1539C1.70511 23.8727 3.03986 24.9744 5.55619 24.9744H25.6795" stroke="#D9A86D" stroke-linecap="round" stroke-linejoin="round"/>
</svg>
