<svg width="27" height="27" viewBox="0 0 27 27" fill="none" xmlns="http://www.w3.org/2000/svg">
<path d="M13.5 19.0557C16.5682 19.0557 19.0556 16.5683 19.0556 13.5001C19.0556 10.4319 16.5682 7.94458 13.5 7.94458C10.4318 7.94458 7.94446 10.4319 7.94446 13.5001C7.94446 16.5683 10.4318 19.0557 13.5 19.0557Z" stroke="black" stroke-linecap="round" stroke-linejoin="round"/>
<path d="M1 19.0556V7.94444C1 4.10914 4.10914 1 7.94444 1H19.0556C22.8908 1 26 4.10914 26 7.94444V19.0556C26 22.8908 22.8908 26 19.0556 26H7.94444C4.10914 26 1 22.8908 1 19.0556Z" stroke="black"/>
<path d="M21.1389 5.87542L21.1533 5.85938" stroke="black" stroke-linecap="round" stroke-linejoin="round"/>
</svg>
