<svg width="43" height="26" viewBox="0 0 43 26" fill="none" xmlns="http://www.w3.org/2000/svg">
<path d="M13.8977 24.9529C15.9329 24.9529 17.5828 23.3031 17.5828 21.2678C17.5828 19.2326 15.9329 17.5828 13.8977 17.5828C11.8625 17.5828 10.2126 19.2326 10.2126 21.2678C10.2126 23.3031 11.8625 24.9529 13.8977 24.9529Z" stroke="black" stroke-miterlimit="1.5" stroke-linecap="round" stroke-linejoin="round"/>
<path d="M32.323 24.9529C34.3583 24.9529 36.0081 23.3031 36.0081 21.2678C36.0081 19.2326 34.3583 17.5828 32.323 17.5828C30.2877 17.5828 28.6379 19.2326 28.6379 21.2678C28.6379 23.3031 30.2877 24.9529 32.323 24.9529Z" stroke="black" stroke-miterlimit="1.5" stroke-linecap="round" stroke-linejoin="round"/>
<path d="M17.6749 21.2678H26.7954V2.10552C26.7954 1.49496 26.3005 1 25.6899 1H1" stroke="black" stroke-linecap="round"/>
<path d="M9.56777 21.2678H5.79058C5.18002 21.2678 4.68506 20.7729 4.68506 20.1623V11.1339" stroke="black" stroke-linecap="round"/>
<path d="M2.84253 6.52759H10.2127" stroke="black" stroke-linecap="round" stroke-linejoin="round"/>
<path d="M26.7954 6.52759H37.1322C37.5691 6.52759 37.965 6.78488 38.1425 7.18412L41.4404 14.6045C41.5032 14.746 41.5357 14.8989 41.5357 15.0535V20.1623C41.5357 20.7729 41.0408 21.2678 40.4301 21.2678H36.9293" stroke="black" stroke-linecap="round"/>
<path d="M26.7954 21.2678H28.6379" stroke="black" stroke-linecap="round"/>
</svg>
