<svg width="30" height="30" viewBox="0 0 30 30" fill="none" xmlns="http://www.w3.org/2000/svg">
<path d="M25.4745 29.2051C26.6428 29.2051 27.5899 28.258 27.5899 27.0897C27.5899 25.9215 26.6428 24.9744 25.4745 24.9744C24.3063 24.9744 23.3591 25.9215 23.3591 27.0897C23.3591 28.258 24.3063 29.2051 25.4745 29.2051Z" fill="black" stroke="black" stroke-linecap="round" stroke-linejoin="round"/>
<path d="M11.3717 29.2051C12.54 29.2051 13.4871 28.258 13.4871 27.0897C13.4871 25.9215 12.54 24.9744 11.3717 24.9744C10.2034 24.9744 9.25635 25.9215 9.25635 27.0897C9.25635 28.258 10.2034 29.2051 11.3717 29.2051Z" fill="black" stroke="black" stroke-linecap="round" stroke-linejoin="round"/>
<path d="M5.02569 3.82051H29L26.1795 19.3333H7.8462L5.02569 3.82051ZM5.02569 3.82051C4.79064 2.88034 3.61543 1 0.794922 1" stroke="black" stroke-linecap="round" stroke-linejoin="round"/>
<path d="M26.1795 19.3333H7.84615H5.35109C2.83475 19.3333 1.5 20.435 1.5 22.1539C1.5 23.8727 2.83475 24.9744 5.35109 24.9744H25.4744" stroke="black" stroke-linecap="round" stroke-linejoin="round"/>
</svg>
